<svg width="0" height="0" class="hidden">

    <symbol fill="none" xmlns="http://www.w3.org/2000/svg" viewBox="0 0 22 22" id="clock">
        <path d="M10.989 0C4.917 0 0 4.928 0 11s4.917 11 10.989 11C17.072 22 22 17.072 22 11S17.072 0 10.989 0zM11 19.8A8.798 8.798 0 012.2 11c0-4.862 3.938-8.8 8.8-8.8s8.8 3.938 8.8 8.8-3.938 8.8-8.8 8.8zm.55-14.3H9.9v6.6l5.775 3.465.825-1.353-4.95-2.937V5.5z"
              fill="#000"></path>
    </symbol>


    <symbol id="search" xmlns="http://www.w3.org/2000/svg" xmlns:xlink="http://www.w3.org/1999/xlink" aria-hidden="true"
            role="img" preserveAspectRatio="xMidYMid meet" viewBox="0 0 24 24">

        <path d="M21 21l-4.486-4.494M19 10.5a8.5 8.5 0 1 1-17 0a8.5 8.5 0 0 1 17 0z" stroke-width="2"
              stroke-linecap="round"/>

    </symbol>

    <symbol id="burger" xmlns="http://www.w3.org/2000/svg" xmlns:xlink="http://www.w3.org/1999/xlink" aria-hidden="true"
            role="img" preserveAspectRatio="xMidYMid meet" viewBox="0 0 24 24">
        <path d="M4 6h16v2H4zm0 5h16v2H4zm0 5h16v2H4z"/>
    </symbol>


    <symbol id="close" xmlns="http://www.w3.org/2000/svg" xmlns:xlink="http://www.w3.org/1999/xlink" aria-hidden="true"
            role="img" preserveAspectRatio="xMidYMid meet" viewBox="0 0 24 24">
        <path  d="M15.59 7L12 10.59L8.41 7L7 8.41L10.59 12L7 15.59L8.41 17L12 13.41L15.59 17L17 15.59L13.41 12L17 8.41L15.59 7z"/>
    </symbol>

    <symbol id="mark" fill="none" xmlns="http://www.w3.org/2000/svg" viewBox="0 0 11 8" >
        <path d="M1 2.25L4.85714 6L10 1" stroke="#414042" stroke-width="2"></path>
    </symbol>

    <symbol id="lock" fill="none" xmlns="http://www.w3.org/2000/svg" viewBox="0 0 22 27" >
        <path d="M18.3516 9.91406H16.4512V5.57771C16.4512 2.50214 13.8962 0 10.7559 0C7.61548 0 5.06055 2.50214 5.06055 5.57771V9.91406H3.16406C1.4194 9.91406 0 11.3335 0 13.0781V23.8359C0 25.5806 1.4194 27 3.16406 27H18.3516C20.0962 27 21.5156 25.5806 21.5156 23.8359V13.0781C21.5156 11.3335 20.0962 9.91406 18.3516 9.91406ZM7.16992 5.57771C7.16992 3.66525 8.77859 2.10938 10.7559 2.10938C12.7331 2.10938 14.3418 3.66525 14.3418 5.57771V9.91406H7.16992V5.57771ZM19.4062 23.8359C19.4062 24.4175 18.9331 24.8906 18.3516 24.8906H3.16406C2.58251 24.8906 2.10938 24.4175 2.10938 23.8359V13.0781C2.10938 12.4966 2.58251 12.0234 3.16406 12.0234H18.3516C18.9331 12.0234 19.4062 12.4966 19.4062 13.0781V23.8359Z" fill="white"></path>
        <path d="M10.7578 15.082C9.68019 15.082 8.80664 15.9556 8.80664 17.0332C8.80664 17.7213 9.16312 18.3257 9.70117 18.6731V20.9883C9.70117 21.5707 10.1734 22.043 10.7559 22.043C11.3383 22.043 11.8105 21.5707 11.8105 20.9883V18.6756C12.3508 18.3286 12.709 17.723 12.709 17.0332C12.709 15.9556 11.8354 15.082 10.7578 15.082Z" fill="white"></path>
    </symbol>



    <symbol fill="none" xmlns="http://www.w3.org/2000/svg" viewBox="0 0 911 24" id="bar">
        <g opacity="0.2">
            <mask id="mask0" maskType="alpha" maskUnits="userSpaceOnUse" x="0" y="-1" width="911" height="25">
                <rect x="911" y="24" width="911" height="24.0001" rx="12" transform="rotate(180 911 24)" fill="url(#paint0_linear)"></rect>
            </mask>
            <g mask="url(#mask0)">
                <rect x="898" y="-8.98413" width="20" height="57" transform="rotate(-26.7942 898 -8.98413)" fill="white"></rect>
                <rect x="810" y="-8.98413" width="20" height="57" transform="rotate(-26.7942 810 -8.98413)" fill="white"></rect>
                <rect x="722" y="-8.98413" width="20" height="57" transform="rotate(-26.7942 722 -8.98413)" fill="white"></rect>
                <rect x="634" y="-8.98413" width="20" height="57" transform="rotate(-26.7942 634 -8.98413)" fill="white"></rect>
                <rect x="546" y="-8.98413" width="20" height="57" transform="rotate(-26.7942 546 -8.98413)" fill="white"></rect>
                <rect x="458" y="-8.98413" width="20" height="57" transform="rotate(-26.7942 458 -8.98413)" fill="white"></rect>
                <rect x="370" y="-8.98413" width="20" height="57" transform="rotate(-26.7942 370 -8.98413)" fill="white"></rect>
                <rect x="282" y="-8.98413" width="20" height="57" transform="rotate(-26.7942 282 -8.98413)" fill="white"></rect>
                <rect x="194" y="-8.98413" width="20" height="57" transform="rotate(-26.7942 194 -8.98413)" fill="white"></rect>
                <rect x="106" y="-8.98413" width="20" height="57" transform="rotate(-26.7942 106 -8.98413)" fill="white"></rect>
                <rect x="18" y="-8.98413" width="20" height="57" transform="rotate(-26.7942 18 -8.98413)" fill="white"></rect>
                <rect x="854" y="-8.98413" width="20" height="57" transform="rotate(-26.7942 854 -8.98413)" fill="white"></rect>
                <rect x="766" y="-8.98413" width="20" height="57" transform="rotate(-26.7942 766 -8.98413)" fill="white"></rect>
                <rect x="678" y="-8.98413" width="20" height="57" transform="rotate(-26.7942 678 -8.98413)" fill="white"></rect>
                <rect x="590" y="-8.98413" width="20" height="57" transform="rotate(-26.7942 590 -8.98413)" fill="white"></rect>
                <rect x="502" y="-8.98413" width="20" height="57" transform="rotate(-26.7942 502 -8.98413)" fill="white"></rect>
                <rect x="414" y="-8.98413" width="20" height="57" transform="rotate(-26.7942 414 -8.98413)" fill="white"></rect>
                <rect x="326" y="-8.98413" width="20" height="57" transform="rotate(-26.7942 326 -8.98413)" fill="white"></rect>
                <rect x="238" y="-8.98413" width="20" height="57" transform="rotate(-26.7942 238 -8.98413)" fill="white"></rect>
                <rect x="150" y="-8.98413" width="20" height="57" transform="rotate(-26.7942 150 -8.98413)" fill="white"></rect>
                <rect x="62" y="-8.98413" width="20" height="57" transform="rotate(-26.7942 62 -8.98413)" fill="white"></rect>
                <rect x="-26" y="-8.98413" width="20" height="57" transform="rotate(-26.7942 -26 -8.98413)" fill="white"></rect>
            </g>
        </g>
        <defs>
            <linearGradient id="paint0_linear" x1="1312.14" y1="-73.0005" x2="1573.81" y2="102.094" gradientUnits="userSpaceOnUse">
                <stop stop-color="#EBB745"></stop>
                <stop offset="1" stop-color="#FAD873"></stop>
            </linearGradient>
        </defs>
    </symbol>


    <symbol fill="none" xmlns="http://www.w3.org/2000/svg" viewBox="0 0 172 172" id="decor">
        <circle cx="86" cy="86" r="85.5" stroke="#EBB745" stroke-dasharray="5 5"></circle>
        <circle cx="86" cy="86" r="55.5" stroke="#EBB745" stroke-dasharray="5 5"></circle>
        <circle cx="85.5" cy="85.5" r="37.5" fill="#FFE484"></circle>
    </symbol>

    <symbol fill="none" xmlns="http://www.w3.org/2000/svg" viewBox="0 0 11 11" id="bird">
        <rect width="11" height="11" rx="1" fill="#F0F0F0"></rect>
        <path fill-rule="evenodd" clip-rule="evenodd" d="M8.25 4.33631L5.67929 7.03183L4.82238 7.93042L3.96548 7.03183L3.97023 7.02685L2.75 5.73345L3.60713 4.83487L4.82714 6.12849L7.3931 3.4375L8.25 4.33631Z" fill="#1F1F1F"></path>
    </symbol>

    <symbol fill="none" xmlns="http://www.w3.org/2000/svg" viewBox="0 0 22 8" id="Arrow-2">
        <path d="M21.3536 4.35356C21.5488 4.15829 21.5488 3.84171 21.3536 3.64645L18.1716 0.464468C17.9763 0.269205 17.6597 0.269205 17.4645 0.464468C17.2692 0.65973 17.2692 0.976312 17.4645 1.17157L20.2929 4L17.4645 6.82843C17.2692 7.02369 17.2692 7.34027 17.4645 7.53554C17.6597 7.7308 17.9763 7.7308 18.1716 7.53554L21.3536 4.35356ZM-4.37114e-08 4.5L21 4.5L21 3.5L4.37114e-08 3.5L-4.37114e-08 4.5Z" fill="black"></path>
    </symbol>

    <symbol fill="none" xmlns="http://www.w3.org/2000/svg" viewBox="0 0 26 26" id="Instagram">
        <path fill-rule="evenodd" clip-rule="evenodd" d="M0.918945 13.3608C0.918945 16.74 0.933721 17.1641 0.994121 18.4914C1.05478 19.816 1.26449 20.7202 1.5722 21.5114C1.89001 22.3297 2.31514 23.024 3.00702 23.7156C3.69864 24.4077 4.39285 24.8328 5.21097 25.1517C6.00239 25.4602 6.90683 25.6701 8.23096 25.7298C9.55821 25.7891 9.98256 25.8047 13.3618 25.8047C16.7411 25.8047 17.1639 25.7897 18.4912 25.7295C19.8158 25.6686 20.72 25.4589 21.5112 25.1514C22.3295 24.8334 23.0238 24.4082 23.7154 23.7164C24.4075 23.025 24.8337 22.3308 25.1515 21.5129C25.4592 20.7212 25.6689 19.8168 25.7296 18.4924C25.79 17.1652 25.8047 16.7413 25.8047 13.3623C25.8047 9.98276 25.79 9.55996 25.7296 8.23272C25.6689 6.90807 25.4592 6.00285 25.1515 5.21117C24.8337 4.39305 24.4075 3.69988 23.7154 3.00852C23.0238 2.31638 22.3295 1.89125 21.5114 1.5724C20.72 1.26651 19.8156 1.05654 18.4914 0.994325C17.1642 0.934703 16.7411 0.919149 13.3618 0.919149C9.98256 0.919149 9.55846 0.934703 8.23122 0.994325C6.90657 1.05654 6.00239 1.26651 5.21123 1.5724C4.39285 1.89125 3.69864 2.31638 3.00702 3.00852C2.31488 3.70066 1.88975 4.39279 1.5722 5.21195C1.26449 6.00518 1.05478 6.90989 0.99412 8.23454C0.933721 9.56178 0.918945 9.98432 0.918945 13.3646L0.918945 13.3608ZM3.15909 14.4761C3.15857 14.1448 3.15909 13.7752 3.15909 13.3599C3.15909 10.0376 3.17101 9.64386 3.23064 8.33191C3.28611 7.11873 3.48883 6.46029 3.65914 6.02168C3.88467 5.44102 4.15426 5.02703 4.58976 4.59179C5.02527 4.15628 5.44003 3.88669 6.0207 3.66064C6.45879 3.49033 7.11723 3.28736 8.33041 3.23214C9.6421 3.17252 10.0361 3.15956 13.3568 3.15956C16.6775 3.15956 17.0715 3.17252 18.3832 3.23214C19.5964 3.28762 20.2549 3.49033 20.693 3.66064C21.2736 3.88617 21.6871 4.15628 22.1223 4.59179C22.5578 5.02729 22.8274 5.44075 23.053 6.02168C23.224 6.45977 23.4262 7.11873 23.4817 8.33191C23.5413 9.6436 23.5543 10.0376 23.5543 13.3599C23.5543 16.6824 23.5413 17.0762 23.4817 18.3879C23.4257 19.601 23.223 20.2595 23.0527 20.6983C22.8272 21.279 22.5576 21.6938 22.1221 22.1293C21.6866 22.5648 21.2728 22.8344 20.6919 23.0604C20.2538 23.2307 19.5954 23.4337 18.3822 23.4889C17.0705 23.5485 16.6765 23.5605 13.3537 23.5605C10.0309 23.5605 9.63899 23.5485 8.3273 23.4889C7.11412 23.4334 6.45568 23.2307 6.01707 23.0604C5.4364 22.8349 5.02164 22.5648 4.58614 22.1293C4.15063 21.6938 3.88104 21.279 3.65499 20.6983C3.4839 20.2597 3.2817 19.601 3.22597 18.3879C3.17413 17.24 3.15857 16.7952 3.15598 14.4761L3.15909 14.4761ZM5.22737 6.7199C5.22737 7.54424 5.8954 8.21305 6.72 8.21305C7.54434 8.21305 8.21315 7.54424 8.21315 6.7199C8.21315 5.89556 7.54434 5.22675 6.72 5.22675C5.89566 5.22675 5.22685 5.89556 5.22685 6.7199L5.22737 6.7199ZM6.97214 13.3605C6.97214 16.8894 9.83323 19.7504 13.3621 19.7504C16.8909 19.7504 19.7507 16.8894 19.7507 13.3605C19.7507 9.83164 16.8909 6.97159 13.3621 6.97159C9.83323 6.97159 6.97214 9.8319 6.97214 13.3608L6.97214 13.3605ZM9.21405 13.3616C9.21405 11.071 11.0709 9.21392 13.3617 9.21392C15.6522 9.21392 17.5093 11.071 17.5093 13.3616C17.5093 15.6523 15.6522 17.5092 13.3617 17.5092C11.0709 17.5092 9.21405 15.6523 9.21405 13.3616Z" fill="#EBB745"></path>
    </symbol>

    <symbol fill="none" xmlns="http://www.w3.org/2000/svg" viewBox="0 0 62 62" id="arrow-yellow">
        <circle cx="31" cy="31" r="31" fill="#EBB745"></circle>
        <path d="M29 36.5858V25.4142C29 24.5233 30.0771 24.0771 30.7071 24.7071L36.2929 30.2929C36.6834 30.6834 36.6834 31.3166 36.2929 31.7071L30.7071 37.2929C30.0771 37.9229 29 37.4767 29 36.5858Z" fill="#2F2E2E"></path>
    </symbol>

</svg>